<?xml version="1.0" standalone="no"?>
<!DOCTYPE svg PUBLIC "-//W3C//DTD SVG 20010904//EN"
 "http://www.w3.org/TR/2001/REC-SVG-20010904/DTD/svg10.dtd">
<svg version="1.0" xmlns="http://www.w3.org/2000/svg"
 width="1024.000000pt" height="1024.000000pt" viewBox="0 0 1024.000000 1024.000000"
 preserveAspectRatio="xMidYMid meet">
<metadata>
Created by potrace 1.14, written by Peter Selinger 2001-2017
</metadata>
<g transform="translate(0.000000,1024.000000) scale(0.100000,-0.100000)"
fill="#000000" stroke="none">
<path d="M5037 9484 c-1 -1 -69 -5 -152 -8 -82 -3 -159 -8 -170 -10 -11 -2
-59 -7 -106 -10 -264 -19 -787 -140 -1025 -237 -16 -7 -34 -13 -41 -15 -21 -4
-257 -107 -278 -121 -11 -7 -25 -13 -31 -13 -12 0 -285 -147 -344 -185 -19
-12 -63 -40 -98 -61 -108 -67 -382 -270 -469 -349 -12 -11 -37 -32 -56 -48
-141 -116 -352 -331 -509 -520 -55 -66 -104 -125 -109 -131 -5 -6 -27 -36 -49
-66 -22 -30 -50 -68 -62 -84 -46 -58 -168 -243 -168 -253 0 -4 -6 -14 -14 -22
-13 -15 -84 -143 -114 -206 -8 -16 -20 -37 -27 -45 -6 -8 -24 -44 -40 -80 -15
-36 -40 -92 -55 -125 -49 -107 -62 -137 -70 -164 -5 -14 -23 -62 -40 -106 -71
-184 -150 -484 -189 -720 -28 -170 -31 -188 -37 -273 -3 -43 -7 -88 -10 -102
-5 -31 -17 -321 -17 -415 0 -102 12 -386 18 -414 2 -12 7 -57 10 -100 3 -42 7
-87 10 -101 2 -14 11 -70 20 -125 20 -130 80 -397 113 -505 14 -47 26 -87 27
-90 10 -41 32 -106 56 -168 16 -42 39 -102 51 -132 11 -30 34 -84 50 -119 16
-35 38 -87 50 -115 12 -28 25 -55 29 -61 4 -5 28 -50 54 -100 27 -49 56 -103
65 -120 40 -69 64 -110 70 -115 11 -10 90 -141 90 -151 0 -5 3 -9 8 -9 4 0 18
-17 32 -38 14 -20 27 -39 30 -42 3 -3 24 -30 45 -60 22 -30 45 -62 52 -70 173
-216 199 -246 347 -400 80 -83 250 -241 346 -320 41 -34 86 -72 100 -84 14
-11 52 -41 85 -65 33 -25 62 -48 63 -53 2 -4 8 -8 13 -8 5 0 35 -19 66 -43
189 -142 675 -402 843 -452 14 -4 43 -16 65 -26 37 -17 180 -66 215 -75 8 -2
59 -17 112 -33 53 -16 109 -32 125 -35 15 -2 78 -16 138 -29 125 -28 336 -63
442 -72 40 -4 85 -8 100 -10 40 -6 356 -19 433 -18 92 0 380 13 410 17 14 3
60 7 102 11 42 3 87 8 100 10 12 3 40 7 63 10 22 3 51 8 65 10 14 3 39 7 55 9
78 13 106 18 183 36 46 11 96 22 110 25 112 21 482 146 642 217 79 35 335 161
340 167 3 3 25 17 50 30 139 72 430 271 580 395 25 20 54 44 65 53 94 75 266
235 369 343 45 46 92 96 106 111 50 52 207 246 296 364 49 66 92 122 97 123 4
2 7 8 7 14 0 6 22 44 50 85 28 41 50 77 50 80 0 3 9 18 21 34 51 72 258 484
258 514 0 3 7 18 15 33 32 59 131 342 151 432 0 3 6 21 13 40 12 35 75 314 86
380 28 173 36 230 42 302 3 40 7 84 9 98 6 31 18 321 18 415 0 91 -12 395 -17
421 -2 10 -7 55 -10 99 -3 44 -8 89 -10 100 -2 11 -11 70 -21 130 -14 92 -28
161 -60 306 -12 57 -37 156 -42 169 -3 8 -7 20 -9 25 -23 83 -60 200 -74 235
-10 25 -33 83 -51 130 -17 47 -47 117 -64 155 -18 39 -43 95 -56 125 -12 30
-31 67 -41 82 -10 14 -18 28 -18 31 0 3 -27 54 -60 113 -33 59 -60 111 -60
116 0 4 -4 8 -8 8 -5 0 -14 11 -20 25 -12 25 -122 194 -143 218 -5 7 -28 37
-50 67 -116 159 -331 411 -475 554 -45 46 -221 206 -249 227 -16 13 -32 26
-35 29 -13 14 -166 134 -270 211 -348 258 -848 505 -1241 613 -30 9 -88 25
-129 36 -41 12 -93 25 -115 29 -178 38 -163 36 -310 60 -66 11 -156 23 -200
26 -44 4 -91 9 -105 11 -58 7 -498 23 -503 18z m-619 -2379 c52 -21 106 -83
120 -135 6 -24 9 -331 8 -802 l-1 -763 568 1 c312 1 571 4 574 8 3 3 5 342 5
753 -1 842 -2 832 67 895 63 59 80 62 345 63 133 1 259 -3 281 -7 75 -17 145
-86 161 -160 3 -13 5 -842 6 -1844 0 -1789 0 -1822 -19 -1865 -11 -24 -33 -57
-49 -72 -57 -56 -75 -60 -359 -61 l-260 -1 -50 26 c-53 28 -101 79 -112 120
-4 13 -8 366 -9 784 -2 418 -3 767 -3 775 -1 13 -72 15 -573 15 l-573 0 1
-770 c1 -491 -2 -781 -9 -800 -16 -48 -54 -92 -104 -122 l-47 -27 -266 0
c-287 1 -304 4 -363 58 -16 14 -37 47 -49 72 -20 46 -20 55 -19 1868 0 1001 2
1828 4 1836 8 43 52 111 86 134 53 37 95 42 361 40 200 -1 241 -4 278 -19z
m-1143 -574 c54 -25 101 -79 116 -133 9 -32 12 -349 12 -1293 0 -1243 0 -1250
-21 -1290 -11 -22 -33 -52 -49 -66 -51 -48 -80 -57 -203 -59 -223 -4 -409 -2
-431 5 -47 15 -101 59 -127 104 l-27 46 -2 483 c0 265 -3 488 -6 495 -3 9 -34
13 -113 12 -117 -1 -150 6 -160 38 -9 27 -8 467 0 494 10 33 52 43 169 40 89
-2 107 0 108 13 0 8 1 231 2 495 2 472 2 481 24 521 35 66 103 107 193 116 14
2 126 2 250 0 196 -2 230 -5 265 -21z m4245 15 c14 -2 26 -5 28 -7 1 -1 5 -2
10 -4 47 -13 88 -48 115 -100 22 -39 22 -48 22 -535 l0 -495 110 2 c117 3 161
-7 170 -38 5 -16 9 -295 6 -456 -2 -70 -19 -79 -161 -78 -101 1 -120 -2 -121
-15 0 -8 -1 -222 -1 -475 -1 -253 -5 -478 -10 -501 -5 -26 -23 -55 -49 -82
-67 -71 -81 -73 -364 -73 -137 0 -260 3 -273 5 -69 15 -145 93 -159 164 -3 15
-5 587 -6 1272 0 1244 0 1245 21 1290 11 25 27 52 34 60 28 33 92 63 146 69
64 7 443 5 482 -3z"/>
</g>
</svg>
